# This file uses centimeters as units for non-parametric coordinates.

mtllib balta.mtl
g default
v 1.804148 0.542540 0.002536
v 5.369003 0.542540 0.002536
v 1.804148 2.571838 0.148233
v 5.369003 2.571838 0.148233
v 1.804148 2.571838 -0.148233
v 5.369003 2.571838 -0.148233
v 1.804148 0.542540 -0.002536
v 5.369003 0.542540 -0.002536
vt 0.156881 0.000000
vt 0.313763 0.000000
vt 0.156881 0.156881
vt 0.313763 0.156881
vt 0.156881 0.313763
vt 0.313763 0.313763
vt 0.156881 0.470644
vt 0.313763 0.470644
vt 0.156881 0.627525
vt 0.313763 0.627525
vt 0.470644 0.000000
vt 0.470644 0.156881
vt 0.000000 0.000000
vt 0.000000 0.156881
vn 0.000000 -0.071613 0.997432
vn 0.000000 -0.071613 0.997432
vn 0.000000 -0.071613 0.997432
vn 0.000000 -0.071613 0.997432
vn 0.000000 1.000000 0.000000
vn 0.000000 1.000000 0.000000
vn 0.000000 1.000000 0.000000
vn 0.000000 1.000000 0.000000
vn 0.000000 -0.071613 -0.997432
vn 0.000000 -0.071613 -0.997432
vn 0.000000 -0.071613 -0.997432
vn 0.000000 -0.071613 -0.997432
vn 0.000000 -1.000000 0.000000
vn 0.000000 -1.000000 0.000000
vn 0.000000 -1.000000 0.000000
vn 0.000000 -1.000000 0.000000
vn 1.000000 0.000000 0.000000
vn 1.000000 0.000000 0.000000
vn 1.000000 0.000000 0.000000
vn 1.000000 0.000000 0.000000
vn -1.000000 0.000000 0.000000
vn -1.000000 0.000000 0.000000
vn -1.000000 0.000000 0.000000
vn -1.000000 0.000000 0.000000
s off
g pCube3 balta
usemtl initialShadingGroup
f 1/1/1 2/2/2 4/4/3 3/3/4
f 3/3/5 4/4/6 6/6/7 5/5/8
f 5/5/9 6/6/10 8/8/11 7/7/12
f 7/7/13 8/8/14 2/10/15 1/9/16
f 2/2/17 8/11/18 6/12/19 4/4/20
f 7/13/21 1/1/22 3/3/23 5/14/24
g default
v 5.653811 2.755095 0.193401
v 5.653811 2.841937 0.073872
v 5.653811 2.841937 -0.073872
v 5.653811 2.755095 -0.193401
v 5.653811 2.614581 -0.239056
v 5.653811 2.474067 -0.193401
v 5.653811 2.387225 -0.073872
v 5.653811 2.387225 0.073872
v 5.653811 2.474067 0.193401
v 5.653811 2.614581 0.239056
v -0.147027 2.755095 0.193401
v -0.147027 2.841937 0.073872
v -0.147027 2.841937 -0.073872
v -0.147027 2.755095 -0.193401
v -0.147027 2.614581 -0.239056
v -0.147027 2.474067 -0.193401
v -0.147027 2.387225 -0.073872
v -0.147027 2.387225 0.073872
v -0.147027 2.474067 0.193401
v -0.147027 2.614581 0.239056
v 5.653811 2.614581 0.000000
v -0.147027 2.614581 0.000000
vt 0.549310 0.056935
vt 0.537896 0.048641
vt 0.523786 0.048641
vt 0.512372 0.056935
vt 0.508012 0.070353
vt 0.512372 0.083772
vt 0.523786 0.092065
vt 0.537896 0.092065
vt 0.549310 0.083772
vt 0.553670 0.070353
vt 0.589657 0.541077
vt 0.612484 0.541077
vt 0.635311 0.541077
vt 0.658137 0.541077
vt 0.680964 0.541077
vt 0.703791 0.541077
vt 0.726618 0.541077
vt 0.749445 0.541077
vt 0.772272 0.541077
vt 0.795099 0.541077
vt 0.817926 0.541077
vt 0.589657 0.883481
vt 0.612484 0.883481
vt 0.635311 0.883481
vt 0.658137 0.883481
vt 0.680964 0.883481
vt 0.703791 0.883481
vt 0.726618 0.883481
vt 0.749445 0.883481
vt 0.772272 0.883481
vt 0.795099 0.883481
vt 0.817926 0.883481
vt 0.513024 0.087541
vt 0.501609 0.079248
vt 0.487500 0.079248
vt 0.476085 0.087541
vt 0.471725 0.100960
vt 0.476085 0.114378
vt 0.487500 0.122672
vt 0.501609 0.122672
vt 0.513024 0.114378
vt 0.517384 0.100960
vt 0.530841 0.070353
vt 0.494555 0.100960
vn -0.000000 0.809017 0.587785
vn -0.000000 0.809017 0.587785
vn -0.000000 0.809017 0.587785
vn -0.000000 0.809017 0.587785
vn -0.000000 1.000000 -0.000000
vn -0.000000 1.000000 -0.000000
vn -0.000000 1.000000 -0.000000
vn -0.000000 1.000000 -0.000000
vn -0.000000 0.809017 -0.587785
vn -0.000000 0.809017 -0.587785
vn -0.000000 0.809017 -0.587785
vn -0.000000 0.809017 -0.587785
vn -0.000000 0.309017 -0.951057
vn -0.000000 0.309017 -0.951057
vn -0.000000 0.309017 -0.951057
vn -0.000000 0.309017 -0.951057
vn 0.000000 -0.309017 -0.951057
vn 0.000000 -0.309017 -0.951057
vn 0.000000 -0.309017 -0.951057
vn 0.000000 -0.309017 -0.951057
vn 0.000000 -0.809017 -0.587785
vn 0.000000 -0.809017 -0.587785
vn 0.000000 -0.809017 -0.587785
vn 0.000000 -0.809017 -0.587785
vn 0.000000 -1.000000 0.000000
vn 0.000000 -1.000000 0.000000
vn 0.000000 -1.000000 0.000000
vn 0.000000 -1.000000 0.000000
vn 0.000000 -0.809017 0.587785
vn 0.000000 -0.809017 0.587785
vn 0.000000 -0.809017 0.587785
vn 0.000000 -0.809017 0.587785
vn 0.000000 -0.309017 0.951057
vn 0.000000 -0.309017 0.951057
vn 0.000000 -0.309017 0.951057
vn 0.000000 -0.309017 0.951057
vn -0.000000 0.309017 0.951057
vn -0.000000 0.309017 0.951057
vn -0.000000 0.309017 0.951057
vn -0.000000 0.309017 0.951057
vn 1.000000 -0.000001 0.000000
vn 1.000000 0.000000 0.000000
vn 1.000000 0.000000 0.000000
vn 1.000000 -0.000001 0.000000
vn 1.000000 0.000000 0.000000
vn 1.000000 0.000000 0.000000
vn 1.000000 0.000001 0.000000
vn 1.000000 0.000001 0.000000
vn 1.000000 0.000000 0.000000
vn 1.000000 0.000000 0.000000
vn 1.000000 0.000000 0.000000
vn -1.000000 -0.000000 0.000000
vn -1.000000 -0.000001 0.000000
vn -1.000000 -0.000000 0.000000
vn -1.000000 -0.000000 0.000000
vn -1.000000 0.000001 0.000000
vn -1.000000 -0.000000 0.000000
vn -1.000000 -0.000000 0.000000
vn -1.000000 -0.000000 0.000000
vn -1.000000 -0.000000 0.000000
vn -1.000000 -0.000000 0.000000
vn -1.000000 -0.000000 0.000000
s off
g balta pCylinder2
usemtl initialShadingGroup
f 9/25/25 10/26/26 20/37/27 19/36/28
f 10/26/29 11/27/30 21/38/31 20/37/32
f 11/27/33 12/28/34 22/39/35 21/38/36
f 12/28/37 13/29/38 23/40/39 22/39/40
f 13/29/41 14/30/42 24/41/43 23/40/44
f 14/30/45 15/31/46 25/42/47 24/41/48
f 15/31/49 16/32/50 26/43/51 25/42/52
f 16/32/53 17/33/54 27/44/55 26/43/56
f 17/33/57 18/34/58 28/45/59 27/44/60
f 18/34/61 9/35/62 19/46/63 28/45/64
s 1
f 10/16/65 9/15/66 29/57/67
f 11/17/68 10/16/65 29/57/67
f 12/18/69 11/17/68 29/57/67
f 13/19/70 12/18/69 29/57/67
f 14/20/71 13/19/70 29/57/67
f 15/21/72 14/20/71 29/57/67
f 16/22/73 15/21/72 29/57/67
f 17/23/74 16/22/73 29/57/67
f 18/24/75 17/23/74 29/57/67
f 9/15/66 18/24/75 29/57/67
s 2
f 19/55/76 20/54/77 30/58/78
f 20/54/77 21/53/79 30/58/78
f 21/53/79 22/52/80 30/58/78
f 22/52/80 23/51/81 30/58/78
f 23/51/81 24/50/82 30/58/78
f 24/50/82 25/49/83 30/58/78
f 25/49/83 26/48/84 30/58/78
f 26/48/84 27/47/85 30/58/78
f 27/47/85 28/56/86 30/58/78
f 28/56/86 19/55/76 30/58/78
g default
v -0.656562 0.124665 0.709306
v 0.656562 0.124665 0.709306
v -0.656562 0.124665 0.205759
v 0.656562 0.124665 0.205759
v -0.598877 3.054427 0.709306
v -0.656562 2.915164 0.709306
v -0.459613 3.112113 0.709306
v -0.656562 2.915164 0.205759
v -0.598877 3.054427 0.205759
v -0.459613 3.112113 0.205759
v 0.598877 3.054427 0.709306
v 0.459613 3.112113 0.709306
v 0.656562 2.915164 0.709306
v 0.656562 2.915164 0.205759
v 0.459613 3.112113 0.205759
v 0.598877 3.054427 0.205759
vt 0.864731 0.405808
vt 0.729462 0.541077
vt 0.864731 0.541077
vt 0.594192 0.000000
vt 0.594192 0.126351
vt 0.864731 0.000000
vt 1.000000 0.000000
vt 0.729462 0.126351
vt 0.749750 0.270538
vt 0.844442 0.135269
vt 1.000000 0.126351
vt 0.749750 0.135269
vt 0.729462 0.000000
vt 0.864731 0.126351
vt 0.864731 0.279456
vt 0.729462 0.405808
vt 0.729462 0.279456
vt 0.844442 0.270538
vt 0.729462 0.135269
vt 0.729462 0.270538
vt 0.594192 0.135269
vt 0.864731 0.135269
vt 1.000000 0.135269
vt 0.864731 0.270538
vn -0.054417 0.998518 0.000000
vn -0.054417 0.998518 0.000000
vn 0.054417 0.998518 0.000000
vn 0.054417 0.998518 0.000000
vn 0.000000 -1.000000 0.000000
vn 0.000000 -1.000000 0.000000
vn 0.000000 -1.000000 0.000000
vn 0.000000 -1.000000 0.000000
vn 1.000000 0.000000 0.000000
vn 1.000000 0.000000 0.000000
vn 0.999806 0.019685 0.000000
vn 0.999806 0.019685 0.000000
vn -1.000000 0.000000 0.000000
vn -1.000000 0.000000 0.000000
vn -0.999806 0.019685 0.000000
vn -0.999806 0.019685 0.000000
vn -0.923879 0.382684 0.000000
vn -0.923879 0.382684 0.000000
vn -0.382686 0.923878 0.000000
vn -0.382686 0.923878 0.000000
vn 0.382686 0.923878 0.000000
vn 0.382686 0.923878 0.000000
vn 0.923879 0.382684 0.000000
vn 0.923879 0.382684 0.000000
vn 0.000000 0.000000 1.000000
vn 0.000000 0.000000 1.000000
vn 0.000000 0.000000 1.000000
vn 0.000000 0.000000 1.000000
vn 0.000000 0.000000 1.000000
vn 0.000000 0.000000 1.000000
vn 0.000000 0.000000 1.000000
vn 0.000000 0.000000 1.000000
vn 0.000000 0.000000 -1.000000
vn 0.000000 0.000000 -1.000000
vn 0.000000 0.000000 -1.000000
vn 0.000000 0.000000 -1.000000
vn 0.000000 0.000000 -1.000000
vn 0.000000 0.000000 -1.000000
vn 0.000000 0.000000 -1.000000
vn 0.000000 0.000000 -1.000000
s 1
g pCube4 tutma
usemtl initialShadingGroup
f 40/67/87 37/70/88 42/68/89 45/76/90
s off
f 33/74/91 34/59/92 32/61/93 31/60/94
s 2
f 32/64/95 34/65/96 44/69/97 43/72/98
s 3
f 33/62/99 31/71/100 36/66/101 38/63/102
f 36/66/101 35/77/103 39/79/104 38/63/102
s 1
f 35/77/105 37/70/88 40/67/87 39/78/106
f 42/68/89 41/80/107 46/82/108 45/76/90
s 2
f 41/80/109 43/72/98 44/69/97 46/81/110
s off
f 41/80/111 42/68/112 37/70/113 35/77/114 36/66/115 31/71/116 32/64/117 43/72/118
f 44/73/119 34/59/120 33/74/121 38/75/122 39/78/123 40/67/124 45/76/125 46/82/126
g default
v 0.242705 2.790917 -1.066995
v 0.092705 2.899898 -1.066995
v -0.092705 2.899898 -1.066995
v -0.242705 2.790917 -1.066995
v -0.300000 2.614581 -1.066995
v -0.242705 2.438245 -1.066995
v -0.092705 2.329264 -1.066995
v 0.092705 2.329264 -1.066995
v 0.242705 2.438246 -1.066995
v 0.300000 2.614581 -1.066995
v 0.242705 2.790917 1.066995
v 0.092705 2.899898 1.066995
v -0.092705 2.899898 1.066995
v -0.242705 2.790917 1.066995
v -0.300000 2.614581 1.066995
v -0.242705 2.438245 1.066995
v -0.092705 2.329264 1.066995
v 0.092705 2.329264 1.066995
v 0.242705 2.438246 1.066995
v 0.300000 2.614581 1.066995
v 0.000000 2.614581 -1.066995
v 0.000000 2.614581 1.066995
vt 0.523552 0.010407
vt 0.509228 0.000000
vt 0.491521 0.000000
vt 0.477197 0.010407
vt 0.471725 0.027247
vt 0.477197 0.044087
vt 0.491521 0.054494
vt 0.509228 0.054494
vt 0.523552 0.044087
vt 0.529024 0.027247
vt 0.820983 0.541077
vt 0.836493 0.541077
vt 0.852003 0.541077
vt 0.867513 0.541077
vt 0.883023 0.541077
vt 0.898533 0.541077
vt 0.914043 0.541077
vt 0.929553 0.541077
vt 0.945063 0.541077
vt 0.960572 0.541077
vt 0.976082 0.541077
vt 0.820983 0.773725
vt 0.836493 0.773725
vt 0.852003 0.773725
vt 0.867513 0.773725
vt 0.883023 0.773725
vt 0.898533 0.773725
vt 0.914043 0.773725
vt 0.929553 0.773725
vt 0.945063 0.773725
vt 0.960572 0.773725
vt 0.976082 0.773725
vt 0.582518 0.010407
vt 0.568193 0.000000
vt 0.550487 0.000000
vt 0.536162 0.010407
vt 0.530691 0.027247
vt 0.536162 0.044087
vt 0.550487 0.054494
vt 0.568193 0.054494
vt 0.582518 0.044087
vt 0.587989 0.027247
vt 0.500374 0.027247
vt 0.559340 0.027247
vn 0.587785 0.809017 0.000000
vn 0.587785 0.809017 0.000000
vn 0.587785 0.809017 0.000000
vn 0.587785 0.809017 0.000000
vn -0.000000 1.000000 0.000000
vn -0.000000 1.000000 0.000000
vn -0.000000 1.000000 0.000000
vn -0.000000 1.000000 0.000000
vn -0.587785 0.809017 0.000000
vn -0.587785 0.809017 0.000000
vn -0.587785 0.809017 0.000000
vn -0.587785 0.809017 0.000000
vn -0.951057 0.309017 0.000000
vn -0.951057 0.309017 0.000000
vn -0.951057 0.309017 0.000000
vn -0.951057 0.309017 0.000000
vn -0.951056 -0.309017 0.000000
vn -0.951056 -0.309017 0.000000
vn -0.951056 -0.309017 0.000000
vn -0.951056 -0.309017 0.000000
vn -0.587785 -0.809017 0.000000
vn -0.587785 -0.809017 0.000000
vn -0.587785 -0.809017 0.000000
vn -0.587785 -0.809017 0.000000
vn 0.000000 -1.000000 0.000000
vn 0.000000 -1.000000 0.000000
vn 0.000000 -1.000000 0.000000
vn 0.000000 -1.000000 0.000000
vn 0.587785 -0.809017 0.000000
vn 0.587785 -0.809017 0.000000
vn 0.587785 -0.809017 0.000000
vn 0.587785 -0.809017 0.000000
vn 0.951057 -0.309017 0.000000
vn 0.951057 -0.309017 0.000000
vn 0.951057 -0.309017 0.000000
vn 0.951057 -0.309017 0.000000
vn 0.951057 0.309017 0.000000
vn 0.951057 0.309017 0.000000
vn 0.951057 0.309017 0.000000
vn 0.951057 0.309017 0.000000
vn 0.000000 -0.000000 -1.000000
vn 0.000000 -0.000000 -1.000000
vn 0.000000 0.000000 -1.000000
vn 0.000000 -0.000000 -1.000000
vn 0.000000 -0.000000 -1.000000
vn 0.000000 -0.000000 -1.000000
vn 0.000000 0.000000 -1.000000
vn 0.000000 0.000000 -1.000000
vn 0.000000 -0.000000 -1.000000
vn 0.000000 -0.000000 -1.000000
vn 0.000000 -0.000000 -1.000000
vn 0.000000 0.000000 1.000000
vn 0.000000 -0.000000 1.000000
vn 0.000000 0.000000 1.000000
vn 0.000000 -0.000000 1.000000
vn 0.000000 0.000000 1.000000
vn 0.000000 0.000000 1.000000
vn 0.000000 0.000000 1.000000
vn 0.000000 0.000000 1.000000
vn 0.000000 0.000000 1.000000
vn 0.000000 0.000000 1.000000
vn 0.000000 0.000000 1.000000
s off
g tutma pCylinder1
usemtl initialShadingGroup
f 47/93/127 48/94/128 58/105/129 57/104/130
f 48/94/131 49/95/132 59/106/133 58/105/134
f 49/95/135 50/96/136 60/107/137 59/106/138
f 50/96/139 51/97/140 61/108/141 60/107/142
f 51/97/143 52/98/144 62/109/145 61/108/146
f 52/98/147 53/99/148 63/110/149 62/109/150
f 53/99/151 54/100/152 64/111/153 63/110/154
f 54/100/155 55/101/156 65/112/157 64/111/158
f 55/101/159 56/102/160 66/113/161 65/112/162
f 56/102/163 47/103/164 57/114/165 66/113/166
s 1
f 48/84/167 47/83/168 67/125/169
f 49/85/170 48/84/167 67/125/169
f 50/86/171 49/85/170 67/125/169
f 51/87/172 50/86/171 67/125/169
f 52/88/173 51/87/172 67/125/169
f 53/89/174 52/88/173 67/125/169
f 54/90/175 53/89/174 67/125/169
f 55/91/176 54/90/175 67/125/169
f 56/92/177 55/91/176 67/125/169
f 47/83/168 56/92/177 67/125/169
s 2
f 57/123/178 58/122/179 68/126/180
f 58/122/179 59/121/181 68/126/180
f 59/121/181 60/120/182 68/126/180
f 60/120/182 61/119/183 68/126/180
f 61/119/183 62/118/184 68/126/180
f 62/118/184 63/117/185 68/126/180
f 63/117/185 64/116/186 68/126/180
f 64/116/186 65/115/187 68/126/180
f 65/115/187 66/124/188 68/126/180
f 66/124/188 57/123/178 68/126/180
g default
v -0.656562 0.124665 -0.283204
v 0.656562 0.124665 -0.283204
v -0.656562 0.124665 -0.786751
v 0.656562 0.124665 -0.786751
v -0.598877 3.054427 -0.283204
v -0.656562 2.915164 -0.283204
v -0.459613 3.112113 -0.283204
v -0.656562 2.915164 -0.786751
v -0.598877 3.054427 -0.786751
v -0.459613 3.112113 -0.786751
v 0.598877 3.054427 -0.283204
v 0.459613 3.112113 -0.283204
v 0.656562 2.915164 -0.283204
v 0.656562 2.915164 -0.786751
v 0.459613 3.112113 -0.786751
v 0.598877 3.054427 -0.786751
vt 0.588046 0.562689
vt 0.452777 0.697958
vt 0.588046 0.697958
vt 0.317507 0.156881
vt 0.317507 0.283233
vt 0.588046 0.156881
vt 0.723315 0.156881
vt 0.452777 0.283233
vt 0.473065 0.427420
vt 0.567757 0.292150
vt 0.723315 0.283233
vt 0.473065 0.292150
vt 0.452777 0.156881
vt 0.588046 0.283233
vt 0.588046 0.436337
vt 0.452777 0.562689
vt 0.452777 0.436337
vt 0.567757 0.427420
vt 0.452777 0.292150
vt 0.452777 0.427420
vt 0.317507 0.292150
vt 0.588046 0.292150
vt 0.723315 0.292150
vt 0.588046 0.427420
vn -0.054417 0.998518 0.000000
vn -0.054417 0.998518 0.000000
vn 0.054417 0.998518 0.000000
vn 0.054417 0.998518 0.000000
vn 0.000000 -1.000000 0.000000
vn 0.000000 -1.000000 0.000000
vn 0.000000 -1.000000 0.000000
vn 0.000000 -1.000000 0.000000
vn 1.000000 0.000000 0.000000
vn 1.000000 0.000000 0.000000
vn 0.999806 0.019685 0.000000
vn 0.999806 0.019685 0.000000
vn -1.000000 0.000000 0.000000
vn -1.000000 0.000000 0.000000
vn -0.999806 0.019685 0.000000
vn -0.999806 0.019685 0.000000
vn -0.923879 0.382684 0.000000
vn -0.923879 0.382684 0.000000
vn -0.382686 0.923878 0.000000
vn -0.382686 0.923878 0.000000
vn 0.382686 0.923878 0.000000
vn 0.382686 0.923878 0.000000
vn 0.923879 0.382684 0.000000
vn 0.923879 0.382684 0.000000
vn 0.000000 0.000000 1.000000
vn 0.000000 0.000000 1.000000
vn 0.000000 0.000000 1.000000
vn 0.000000 0.000000 1.000000
vn 0.000000 0.000000 1.000000
vn 0.000000 0.000000 1.000000
vn 0.000000 0.000000 1.000000
vn 0.000000 0.000000 1.000000
vn -0.000000 0.000000 -1.000000
vn -0.000000 0.000000 -1.000000
vn -0.000000 0.000000 -1.000000
vn -0.000000 0.000000 -1.000000
vn -0.000000 0.000000 -1.000000
vn -0.000000 0.000000 -1.000000
vn -0.000000 0.000000 -1.000000
vn -0.000000 0.000000 -1.000000
s 1
g tutma pCube2
usemtl initialShadingGroup
f 78/135/189 75/138/190 80/136/191 83/144/192
s off
f 71/142/193 72/127/194 70/129/195 69/128/196
s 2
f 70/132/197 72/133/198 82/137/199 81/140/200
s 3
f 71/130/201 69/139/202 74/134/203 76/131/204
f 74/134/203 73/145/205 77/147/206 76/131/204
s 1
f 73/145/207 75/138/190 78/135/189 77/146/208
f 80/136/191 79/148/209 84/150/210 83/144/192
s 2
f 79/148/211 81/140/200 82/137/199 84/149/212
s off
f 79/148/213 80/136/214 75/138/215 73/145/216 74/134/217 69/139/218 70/132/219 81/140/220
f 82/141/221 72/127/222 71/142/223 76/143/224 77/146/225 78/135/226 83/144/227 84/150/228
